<svg xmlns="http://www.w3.org/2000/svg" xmlns:xlink="http://www.w3.org/1999/xlink" viewBox="0 0 840 420" width="840" height="420">
  <defs>
    <linearGradient id="nameGrad" x1="0" y1="0" x2="1" y2="0">
      <stop offset="0%" stop-color="#ffdbb0"/>
      <stop offset="25%" stop-color="#ff9e44"/>
      <stop offset="40%" stop-color="#ffeedd"/>
      <stop offset="50%" stop-color="#ffffff">
        <animate attributeName="offset" values="0.25;0.55;0.25" dur="4s" repeatCount="indefinite"/>
      </stop>
      <stop offset="60%" stop-color="#ffeedd"/>
      <stop offset="75%" stop-color="#ff9e44"/>
      <stop offset="100%" stop-color="#ffdbb0"/>
      <animateTransform attributeName="gradientTransform" type="translate" values="-0.6;0.6;-0.6" dur="5s" repeatCount="indefinite"/>
    </linearGradient>
    <linearGradient id="borderGrad" x1="0" y1="0" x2="1" y2="1">
      <stop offset="0%" stop-color="#ff9e44" stop-opacity="0.65"/>
      <stop offset="50%" stop-color="#ffdbb0" stop-opacity="0.3">
        <animate attributeName="stop-opacity" values="0.3;0.7;0.3" dur="3s" repeatCount="indefinite"/>
      </stop>
      <stop offset="100%" stop-color="#cc6a00" stop-opacity="0.6"/>
    </linearGradient>
    <radialGradient id="glow" cx="0.5" cy="0.38" r="0.42">
      <stop offset="0%" stop-color="#ff9e44" stop-opacity="0.12"/>
      <stop offset="60%" stop-color="#ff6a00" stop-opacity="0.04"/>
      <stop offset="100%" stop-color="#ff9e44" stop-opacity="0"/>
    </radialGradient>
    <linearGradient id="subGrad" x1="0" y1="0" x2="1" y2="0">
      <stop offset="0%" stop-color="#c59a77"/>
      <stop offset="50%" stop-color="#e8c4a0">
        <animate attributeName="stop-color" values="#e8c4a0;#c59a77;#e8c4a0" dur="3.5s" repeatCount="indefinite"/>
      </stop>
      <stop offset="100%" stop-color="#c59a77"/>
    </linearGradient>
    <linearGradient id="coreGrad1" x1="0" y1="0" x2="1" y2="1">
      <stop offset="0%" stop-color="#cc6a00"/>
      <stop offset="50%" stop-color="#ff9e44"/>
      <stop offset="100%" stop-color="#fff5e6"/>
    </linearGradient>
    <filter id="nameGlow">
      <feGaussianBlur in="SourceGraphic" stdDeviation="2.5" result="b"/>
      <feMerge><feMergeNode in="b"/><feMergeNode in="SourceGraphic"/></feMerge>
    </filter>
    <filter id="orangeGlow">
      <feGaussianBlur stdDeviation="12" result="b"/>
      <feMerge><feMergeNode in="b"/><feMergeNode in="SourceGraphic"/></feMerge>
    </filter>
    <filter id="subGlow">
      <feGaussianBlur stdDeviation="1" result="b"/>
      <feMerge><feMergeNode in="b"/><feMergeNode in="SourceGraphic"/></feMerge>
    </filter>
    <clipPath id="avatarClip"><circle cx="420" cy="115" r="23"/></clipPath>
    <pattern id="scanlines" patternUnits="userSpaceOnUse" width="840" height="4">
      <rect width="840" height="1" fill="#ff9e44"/>
    </pattern>
    <pattern id="grid" patternUnits="userSpaceOnUse" width="42" height="42">
      <rect width="42" height="42" fill="none" stroke="#ff9e44" stroke-width="0.25" stroke-opacity="0.10"/>
    </pattern>
  </defs>

  <!-- ── Background ── -->
  <rect width="840" height="420" rx="20" fill="#050208"/>
  <rect width="840" height="420" rx="20" fill="url(#grid)"/>
  <rect width="840" height="420" rx="20" fill="url(#glow)"/>
  <rect x="1" y="1" width="838" height="418" rx="19" fill="none" stroke="url(#borderGrad)" stroke-width="1.8"/>
  <rect x="5" y="5" width="830" height="410" rx="16" fill="none" stroke="#ff9e44" stroke-width="0.4" stroke-opacity="0.1"/>

  <!-- ── Binary rain ── -->
  <g font-family="Consolas,'Courier New',monospace" font-size="13" letter-spacing="0">
    <text x="32" fill="#ff9e44" opacity="0.11" transform="translate(0,-420)"><animateTransform attributeName="transform" type="translate" values="0,-420;0,460" dur="9.2s" repeatCount="indefinite"/><animate attributeName="opacity" values="0;0.11;0.11;0" keyTimes="0;0.08;0.85;1" dur="9.2s" repeatCount="indefinite"/><set attributeName="textContent" to="0"/><animate attributeName="opacity" values="0.11;0.08;0.11" dur="1.4s" repeatCount="indefinite"/>0<set attributeName="textContent" values="0;1" begin="0.8s"/><set attributeName="textContent" values="1;0" begin="1.6s"/><set attributeName="textContent" values="0;1" begin="2.4s"/><set attributeName="textContent" values="1;0" begin="3.2s"/><set attributeName="textContent" values="0;1" begin="4.0s"/><set attributeName="textContent" values="1;0" begin="4.8s"/><set attributeName="textContent" values="0;1" begin="5.6s"/><set attributeName="textContent" values="1;0" begin="6.4s"/><set attributeName="textContent" values="0;1" begin="7.2s"/><set attributeName="textContent" values="1;0" begin="8.0s"/></text>
    <text x="78" fill="#ff9e44" opacity="0.08" transform="translate(0,-420)"><animateTransform attributeName="transform" type="translate" values="0,-420;0,460" dur="11.5s" repeatCount="indefinite"/><animate attributeName="opacity" values="0;0.08;0.08;0" keyTimes="0;0.07;0.88;1" dur="11.5s" repeatCount="indefinite"/>1<set attributeName="textContent" values="1;0" begin="0.7s"/><set attributeName="textContent" values="0;1" begin="1.8s"/><set attributeName="textContent" values="1;0" begin="3.0s"/><set attributeName="textContent" values="0;1" begin="4.2s"/><set attributeName="textContent" values="1;0" begin="5.4s"/><set attributeName="textContent" values="0;1" begin="6.6s"/><set attributeName="textContent" values="1;0" begin="7.8s"/><set attributeName="textContent" values="0;1" begin="9.0s"/><set attributeName="textContent" values="1;0" begin="10.2s"/></text>
    <text x="128" fill="#ff9e44" opacity="0.15" transform="translate(0,-420)"><animateTransform attributeName="transform" type="translate" values="0,-420;0,460" dur="7.8s" repeatCount="indefinite"/><animate attributeName="opacity" values="0;0.15;0.15;0" keyTimes="0;0.09;0.82;1" dur="7.8s" repeatCount="indefinite"/>0<set attributeName="textContent" values="0;1" begin="0.5s"/><set attributeName="textContent" values="1;0" begin="1.3s"/><set attributeName="textContent" values="0;1" begin="2.1s"/><set attributeName="textContent" values="1;0" begin="2.9s"/><set attributeName="textContent" values="0;1" begin="3.7s"/><set attributeName="textContent" values="1;0" begin="4.5s"/><set attributeName="textContent" values="0;1" begin="5.3s"/><set attributeName="textContent" values="1;0" begin="6.1s"/><set attributeName="textContent" values="0;1" begin="6.9s"/></text>
    <text x="175" fill="#ff9e44" opacity="0.09" transform="translate(0,-420)"><animateTransform attributeName="transform" type="translate" values="0,-420;0,460" dur="13.1s" repeatCount="indefinite"/><animate attributeName="opacity" values="0;0.09;0.09;0" keyTimes="0;0.06;0.9;1" dur="13.1s" repeatCount="indefinite"/>1<set attributeName="textContent" values="1;0" begin="1.0s"/><set attributeName="textContent" values="0;1" begin="2.5s"/><set attributeName="textContent" values="1;0" begin="4.0s"/><set attributeName="textContent" values="0;1" begin="5.5s"/><set attributeName="textContent" values="1;0" begin="7.0s"/><set attributeName="textContent" values="0;1" begin="8.5s"/><set attributeName="textContent" values="1;0" begin="10.0s"/><set attributeName="textContent" values="0;1" begin="11.5s"/></text>
    <text x="222" fill="#ff9e44" opacity="0.13" transform="translate(0,-420)"><animateTransform attributeName="transform" type="translate" values="0,-420;0,460" dur="8.6s" repeatCount="indefinite"/><animate attributeName="opacity" values="0;0.13;0.13;0" keyTimes="0;0.08;0.84;1" dur="8.6s" repeatCount="indefinite"/>0<set attributeName="textContent" values="0;1" begin="0.6s"/><set attributeName="textContent" values="1;0" begin="1.5s"/><set attributeName="textContent" values="0;1" begin="2.4s"/><set attributeName="textContent" values="1;0" begin="3.3s"/><set attributeName="textContent" values="0;1" begin="4.2s"/><set attributeName="textContent" values="1;0" begin="5.1s"/><set attributeName="textContent" values="0;1" begin="6.0s"/><set attributeName="textContent" values="1;0" begin="6.9s"/><set attributeName="textContent" values="0;1" begin="7.8s"/></text>
    <text x="270" fill="#ff9e44" opacity="0.07" transform="translate(0,-420)"><animateTransform attributeName="transform" type="translate" values="0,-420;0,460" dur="14.5s" repeatCount="indefinite"/><animate attributeName="opacity" values="0;0.07;0.07;0" keyTimes="0;0.06;0.91;1" dur="14.5s" repeatCount="indefinite"/>1<set attributeName="textContent" values="1;0" begin="1.2s"/><set attributeName="textContent" values="0;1" begin="3.0s"/><set attributeName="textContent" values="1;0" begin="4.8s"/><set attributeName="textContent" values="0;1" begin="6.6s"/><set attributeName="textContent" values="1;0" begin="8.4s"/><set attributeName="textContent" values="0;1" begin="10.2s"/><set attributeName="textContent" values="1;0" begin="12.0s"/><set attributeName="textContent" values="0;1" begin="13.8s"/></text>
    <text x="318" fill="#ff9e44" opacity="0.12" transform="translate(0,-420)"><animateTransform attributeName="transform" type="translate" values="0,-420;0,460" dur="9.8s" repeatCount="indefinite"/><animate attributeName="opacity" values="0;0.12;0.12;0" keyTimes="0;0.08;0.86;1" dur="9.8s" repeatCount="indefinite"/>0<set attributeName="textContent" values="0;1" begin="0.4s"/><set attributeName="textContent" values="1;0" begin="1.2s"/><set attributeName="textContent" values="0;1" begin="2.0s"/><set attributeName="textContent" values="1;0" begin="2.8s"/><set attributeName="textContent" values="0;1" begin="3.6s"/><set attributeName="textContent" values="1;0" begin="4.4s"/><set attributeName="textContent" values="0;1" begin="5.2s"/><set attributeName="textContent" values="1;0" begin="6.0s"/><set attributeName="textContent" values="0;1" begin="6.8s"/><set attributeName="textContent" values="1;0" begin="7.6s"/><set attributeName="textContent" values="0;1" begin="8.4s"/></text>
    <text x="360" fill="#ff9e44" opacity="0.1" transform="translate(0,-420)"><animateTransform attributeName="transform" type="translate" values="0,-420;0,460" dur="10.9s" repeatCount="indefinite"/><animate attributeName="opacity" values="0;0.1;0.1;0" keyTimes="0;0.07;0.87;1" dur="10.9s" repeatCount="indefinite"/>1<set attributeName="textContent" values="1;0" begin="0.9s"/><set attributeName="textContent" values="0;1" begin="2.1s"/><set attributeName="textContent" values="1;0" begin="3.3s"/><set attributeName="textContent" values="0;1" begin="4.5s"/><set attributeName="textContent" values="1;0" begin="5.7s"/><set attributeName="textContent" values="0;1" begin="6.9s"/><set attributeName="textContent" values="1;0" begin="8.1s"/><set attributeName="textContent" values="0;1" begin="9.3s"/><set attributeName="textContent" values="1;0" begin="10.5s"/></text>
    <text x="408" fill="#ff9e44" opacity="0.16" transform="translate(0,-420)"><animateTransform attributeName="transform" type="translate" values="0,-420;0,460" dur="7.2s" repeatCount="indefinite"/><animate attributeName="opacity" values="0;0.16;0.16;0" keyTimes="0;0.09;0.8;1" dur="7.2s" repeatCount="indefinite"/>0<set attributeName="textContent" values="0;1" begin="0.3s"/><set attributeName="textContent" values="1;0" begin="1.0s"/><set attributeName="textContent" values="0;1" begin="1.7s"/><set attributeName="textContent" values="1;0" begin="2.4s"/><set attributeName="textContent" values="0;1" begin="3.1s"/><set attributeName="textContent" values="1;0" begin="3.8s"/><set attributeName="textContent" values="0;1" begin="4.5s"/><set attributeName="textContent" values="1;0" begin="5.2s"/><set attributeName="textContent" values="0;1" begin="5.9s"/><set attributeName="textContent" values="1;0" begin="6.6s"/></text>
    <text x="450" fill="#ff9e44" opacity="0.08" transform="translate(0,-420)"><animateTransform attributeName="transform" type="translate" values="0,-420;0,460" dur="12.3s" repeatCount="indefinite"/><animate attributeName="opacity" values="0;0.08;0.08;0" keyTimes="0;0.07;0.89;1" dur="12.3s" repeatCount="indefinite"/>1<set attributeName="textContent" values="1;0" begin="1.1s"/><set attributeName="textContent" values="0;1" begin="2.7s"/><set attributeName="textContent" values="1;0" begin="4.3s"/><set attributeName="textContent" values="0;1" begin="5.9s"/><set attributeName="textContent" values="1;0" begin="7.5s"/><set attributeName="textContent" values="0;1" begin="9.1s"/><set attributeName="textContent" values="1;0" begin="10.7s"/></text>
    <text x="498" fill="#ff9e44" opacity="0.14" transform="translate(0,-420)"><animateTransform attributeName="transform" type="translate" values="0,-420;0,460" dur="8.1s" repeatCount="indefinite"/><animate attributeName="opacity" values="0;0.14;0.14;0" keyTimes="0;0.08;0.83;1" dur="8.1s" repeatCount="indefinite"/>0<set attributeName="textContent" values="0;1" begin="0.7s"/><set attributeName="textContent" values="1;0" begin="1.6s"/><set attributeName="textContent" values="0;1" begin="2.5s"/><set attributeName="textContent" values="1;0" begin="3.4s"/><set attributeName="textContent" values="0;1" begin="4.3s"/><set attributeName="textContent" values="1;0" begin="5.2s"/><set attributeName="textContent" values="0;1" begin="6.1s"/><set attributeName="textContent" values="1;0" begin="7.0s"/></text>
    <text x="545" fill="#ff9e44" opacity="0.09" transform="translate(0,-420)"><animateTransform attributeName="transform" type="translate" values="0,-420;0,460" dur="11.8s" repeatCount="indefinite"/><animate attributeName="opacity" values="0;0.09;0.09;0" keyTimes="0;0.06;0.88;1" dur="11.8s" repeatCount="indefinite"/>1<set attributeName="textContent" values="1;0" begin="0.8s"/><set attributeName="textContent" values="0;1" begin="2.2s"/><set attributeName="textContent" values="1;0" begin="3.6s"/><set attributeName="textContent" values="0;1" begin="5.0s"/><set attributeName="textContent" values="1;0" begin="6.4s"/><set attributeName="textContent" values="0;1" begin="7.8s"/><set attributeName="textContent" values="1;0" begin="9.2s"/><set attributeName="textContent" values="0;1" begin="10.6s"/></text>
    <text x="592" fill="#ff9e44" opacity="0.11" transform="translate(0,-420)"><animateTransform attributeName="transform" type="translate" values="0,-420;0,460" dur="9.5s" repeatCount="indefinite"/><animate attributeName="opacity" values="0;0.11;0.11;0" keyTimes="0;0.08;0.85;1" dur="9.5s" repeatCount="indefinite"/>0<set attributeName="textContent" values="0;1" begin="0.5s"/><set attributeName="textContent" values="1;0" begin="1.4s"/><set attributeName="textContent" values="0;1" begin="2.3s"/><set attributeName="textContent" values="1;0" begin="3.2s"/><set attributeName="textContent" values="0;1" begin="4.1s"/><set attributeName="textContent" values="1;0" begin="5.0s"/><set attributeName="textContent" values="0;1" begin="5.9s"/><set attributeName="textContent" values="1;0" begin="6.8s"/><set attributeName="textContent" values="0;1" begin="7.7s"/><set attributeName="textContent" values="1;0" begin="8.6s"/></text>
    <text x="638" fill="#ff9e44" opacity="0.07" transform="translate(0,-420)"><animateTransform attributeName="transform" type="translate" values="0,-420;0,460" dur="13.7s" repeatCount="indefinite"/><animate attributeName="opacity" values="0;0.07;0.07;0" keyTimes="0;0.06;0.9;1" dur="13.7s" repeatCount="indefinite"/>1<set attributeName="textContent" values="1;0" begin="1.3s"/><set attributeName="textContent" values="0;1" begin="3.1s"/><set attributeName="textContent" values="1;0" begin="4.9s"/><set attributeName="textContent" values="0;1" begin="6.7s"/><set attributeName="textContent" values="1;0" begin="8.5s"/><set attributeName="textContent" values="0;1" begin="10.3s"/><set attributeName="textContent" values="1;0" begin="12.1s"/></text>
    <text x="685" fill="#ff9e44" opacity="0.13" transform="translate(0,-420)"><animateTransform attributeName="transform" type="translate" values="0,-420;0,460" dur="8.9s" repeatCount="indefinite"/><animate attributeName="opacity" values="0;0.13;0.13;0" keyTimes="0;0.08;0.84;1" dur="8.9s" repeatCount="indefinite"/>0<set attributeName="textContent" values="0;1" begin="0.6s"/><set attributeName="textContent" values="1;0" begin="1.5s"/><set attributeName="textContent" values="0;1" begin="2.4s"/><set attributeName="textContent" values="1;0" begin="3.3s"/><set attributeName="textContent" values="0;1" begin="4.2s"/><set attributeName="textContent" values="1;0" begin="5.1s"/><set attributeName="textContent" values="0;1" begin="6.0s"/><set attributeName="textContent" values="1;0" begin="6.9s"/><set attributeName="textContent" values="0;1" begin="7.8s"/></text>
    <text x="732" fill="#ff9e44" opacity="0.1" transform="translate(0,-420)"><animateTransform attributeName="transform" type="translate" values="0,-420;0,460" dur="10.4s" repeatCount="indefinite"/><animate attributeName="opacity" values="0;0.1;0.1;0" keyTimes="0;0.07;0.87;1" dur="10.4s" repeatCount="indefinite"/>1<set attributeName="textContent" values="1;0" begin="0.9s"/><set attributeName="textContent" values="0;1" begin="2.2s"/><set attributeName="textContent" values="1;0" begin="3.5s"/><set attributeName="textContent" values="0;1" begin="4.8s"/><set attributeName="textContent" values="1;0" begin="6.1s"/><set attributeName="textContent" values="0;1" begin="7.4s"/><set attributeName="textContent" values="1;0" begin="8.7s"/><set attributeName="textContent" values="0;1" begin="10.0s"/></text>
    <text x="778" fill="#ff9e44" opacity="0.08" transform="translate(0,-420)"><animateTransform attributeName="transform" type="translate" values="0,-420;0,460" dur="12.0s" repeatCount="indefinite"/><animate attributeName="opacity" values="0;0.08;0.08;0" keyTimes="0;0.06;0.89;1" dur="12.0s" repeatCount="indefinite"/>0<set attributeName="textContent" values="0;1" begin="1.0s"/><set attributeName="textContent" values="1;0" begin="2.5s"/><set attributeName="textContent" values="0;1" begin="4.0s"/><set attributeName="textContent" values="1;0" begin="5.5s"/><set attributeName="textContent" values="0;1" begin="7.0s"/><set attributeName="textContent" values="1;0" begin="8.5s"/><set attributeName="textContent" values="0;1" begin="10.0s"/><set attributeName="textContent" values="1;0" begin="11.5s"/></text>
    <text x="808" fill="#ff9e44" opacity="0.12" transform="translate(0,-420)"><animateTransform attributeName="transform" type="translate" values="0,-420;0,460" dur="9.0s" repeatCount="indefinite"/><animate attributeName="opacity" values="0;0.12;0.12;0" keyTimes="0;0.08;0.85;1" dur="9.0s" repeatCount="indefinite"/>1<set attributeName="textContent" values="1;0" begin="0.4s"/><set attributeName="textContent" values="0;1" begin="1.2s"/><set attributeName="textContent" values="1;0" begin="2.0s"/><set attributeName="textContent" values="0;1" begin="2.8s"/><set attributeName="textContent" values="1;0" begin="3.6s"/><set attributeName="textContent" values="0;1" begin="4.4s"/><set attributeName="textContent" values="1;0" begin="5.2s"/><set attributeName="textContent" values="0;1" begin="6.0s"/><set attributeName="textContent" values="1;0" begin="6.8s"/><set attributeName="textContent" values="0;1" begin="7.6s"/></text>
  </g>

  <!-- ── HUD corners ── -->
  <g stroke="#ffdbb0" stroke-opacity="0.5" stroke-width="1.2" fill="none" stroke-linecap="round">
    <path d="M14,28 L14,14 L28,14"/>
    <path d="M812,14 L826,14 L826,28"/>
    <path d="M14,392 L14,406 L28,406"/>
    <path d="M812,406 L826,406 L826,392"/>
  </g>

  <!-- ── Core avatar ring ── -->
  <g transform="translate(420, 115)">
    <!-- Outer spinning ring -->
    <circle r="52" fill="none" stroke="#ff9e44" stroke-width="1.8" stroke-opacity="0.55" stroke-dasharray="32 18 8 18">
      <animateTransform attributeName="transform" type="rotate" from="0" to="360" dur="9s" repeatCount="indefinite"/>
    </circle>
    <!-- Mid counter-spin ring -->
    <circle r="42" fill="none" stroke="#ffdbb0" stroke-width="1" stroke-opacity="0.3" stroke-dasharray="22 38">
      <animateTransform attributeName="transform" type="rotate" from="360" to="0" dur="6s" repeatCount="indefinite"/>
    </circle>
    <!-- Inner ring -->
    <circle r="32" fill="none" stroke="#ff9e44" stroke-width="1.2" stroke-opacity="0.45">
      <animate attributeName="stroke-opacity" values="0.3;0.6;0.3" dur="2.8s" repeatCount="indefinite"/>
      <animateTransform attributeName="transform" type="rotate" from="0" to="360" dur="4s" repeatCount="indefinite"/>
    </circle>
    <!-- Core glow -->
    <circle r="27" fill="#ff9e44" opacity="0.06" filter="url(#orangeGlow)"/>
    <!-- Avatar -->
    <circle r="24" fill="#160601" stroke="#ff9e44" stroke-width="2" stroke-opacity="0.65"/>
    <image x="-23" y="-23" width="46" height="46" clip-path="url(#avatarClip)" href="https://github.com/gjj-star.png" preserveAspectRatio="xMidYMid slice"/>
    <!-- Orbiting dots -->
    <g>
      <animateTransform attributeName="transform" type="rotate" from="0" to="360" dur="4.6s" repeatCount="indefinite"/>
      <circle cx="56" cy="0" r="3" fill="#ffdbb0" opacity="0.9"/>
    </g>
    <g>
      <animateTransform attributeName="transform" type="rotate" from="120" to="480" dur="3.4s" repeatCount="indefinite"/>
      <circle cx="56" cy="0" r="3" fill="#ffdbb0" opacity="0.9"/>
    </g>
    <g>
      <animateTransform attributeName="transform" type="rotate" from="240" to="600" dur="5.5s" repeatCount="indefinite"/>
      <circle cx="56" cy="0" r="3" fill="#ffdbb0" opacity="0.9"/>
    </g>
  </g>

  <!-- ── Glitch name ── -->
  <text x="420" y="206" text-anchor="middle" fill="#ff9e44" opacity="0.7" font-size="52" font-weight="900" font-family="'PingFang SC','Microsoft YaHei',sans-serif" letter-spacing="0.15em" transform="translate(-2.5, 0)">亦 青</text>
  <text x="420" y="206" text-anchor="middle" fill="#ffdbb0" opacity="0.6" font-size="52" font-weight="900" font-family="'PingFang SC','Microsoft YaHei',sans-serif" letter-spacing="0.15em" transform="translate(2.5, 0)">亦 青</text>
  <text x="420" y="206" text-anchor="middle" fill="url(#nameGrad)" font-size="52" font-weight="900" font-family="'PingFang SC','Microsoft YaHei',sans-serif" letter-spacing="0.15em" filter="url(#nameGlow)">亦 青</text>

  <!-- ── Subtitle ── -->
  <text x="420" y="230" text-anchor="middle" fill="url(#subGrad)" font-size="14" font-family="'Segoe UI','Consolas',sans-serif" letter-spacing="5" filter="url(#subGlow)">GHOSTGJJ</text>

  <!-- ── Tagline ── -->
  <text x="420" y="262" text-anchor="middle" fill="#c59a77" font-size="13.5" font-family="'PingFang SC','Microsoft YaHei',sans-serif" letter-spacing="1">
    <tspan>既然你在为过去后悔，就该庆幸自己醒悟的及时。</tspan>
    <animate attributeName="opacity" values="0.6;1;0.6" dur="3.5s" repeatCount="indefinite"/>
  </text>

  <!-- ── Divider 1 ── -->
  <line x1="180" y1="280" x2="660" y2="280" stroke="#ff9e44" stroke-width="0.5" stroke-opacity="0.2"/>

  <!-- ── Skills row ── -->
  <g font-family="'Segoe UI','PingFang SC',sans-serif" fill="#c59a77" font-size="12" letter-spacing="0.5">
    <text x="195" y="302" text-anchor="middle">
      <tspan fill="#ff9e44" font-size="14">AI</tspan>
      <tspan dx="4" fill="#8a7060">产品</tspan>
    </text>
    <circle cx="270" cy="298" r="1.5" fill="#ff9e44" opacity="0.35"/>
    <text x="345" y="302" text-anchor="middle">
      <tspan fill="#ff9e44" font-size="14">DATA</tspan>
      <tspan dx="4" fill="#8a7060">分析</tspan>
    </text>
    <circle cx="420" cy="298" r="1.5" fill="#ff9e44" opacity="0.35"/>
    <text x="495" y="302" text-anchor="middle">
      <tspan fill="#ff9e44" font-size="14">FE</tspan>
      <tspan dx="4" fill="#8a7060">前端</tspan>
    </text>
    <circle cx="570" cy="298" r="1.5" fill="#ff9e44" opacity="0.35"/>
    <text x="645" y="302" text-anchor="middle">
      <tspan fill="#ff9e44" font-size="14">PM</tspan>
      <tspan dx="4" fill="#8a7060">协作</tspan>
    </text>
  </g>

  <!-- ── Divider 2 ── -->
  <line x1="180" y1="318" x2="660" y2="318" stroke="#ff9e44" stroke-width="0.5" stroke-opacity="0.2"/>

  <!-- ── Interests tags ── -->
  <g font-family="'PingFang SC','Microsoft YaHei',sans-serif" fill="#8a7060" font-size="11" letter-spacing="0.8">
    <text x="420" y="340" text-anchor="middle">游戏 / 音乐 / 健身 / 科幻 / 开源 / 创作</text>
  </g>

  <!-- ── Social links row ── -->
  <g transform="translate(420, 378)">
    <!-- GitHub -->
    <g transform="translate(-210, 0)">
      <circle r="16" fill="rgba(255,158,68,0.08)" stroke="#ff9e44" stroke-width="0.8" stroke-opacity="0.3"/>
      <g transform="scale(0.55) translate(-12, -12)" opacity="0.9">
        <path d="M12 .297c-6.63 0-12 5.373-12 12 0 5.303 3.438 9.8 8.205 11.385.6.113.82-.258.82-.577 0-.285-.01-1.04-.015-2.04-3.338.724-4.042-1.61-4.042-1.61C4.422 18.07 3.633 17.7 3.633 17.7c-1.087-.744.084-.729.084-.729 1.205.084 1.838 1.236 1.838 1.236 1.07 1.835 2.809 1.305 3.495.998.108-.776.417-1.305.76-1.605-2.665-.3-5.466-1.332-5.466-5.93 0-1.31.465-2.38 1.235-3.22-.135-.303-.54-1.523.105-3.176 0 0 1.005-.322 3.3 1.23.96-.267 1.98-.399 3-.405 1.02.006 2.04.138 3 .405 2.28-1.552 3.285-1.23 3.285-1.23.645 1.653.24 2.873.12 3.176.765.84 1.23 1.91 1.23 3.22 0 4.61-2.805 5.625-5.475 5.92.42.36.81 1.096.81 2.22 0 1.606-.015 2.896-.015 3.286 0 .315.21.69.825.57C20.565 22.092 24 17.592 24 12.297c0-6.627-5.373-12-12-12" fill="#ff9e44"/>
      </g>
      <text y="26" text-anchor="middle" fill="#8a7060" font-size="9" font-family="'Segoe UI',sans-serif">gjj-star</text>
    </g>
    <!-- Bilibili -->
    <g transform="translate(-70, 0)">
      <circle r="16" fill="rgba(255,158,68,0.08)" stroke="#ff9e44" stroke-width="0.8" stroke-opacity="0.3"/>
      <g transform="scale(0.55) translate(-12, -12)" opacity="0.9">
        <path d="M17.813 4.653h.854c1.51.054 2.769.578 3.773 1.574 1.004.995 1.524 2.249 1.56 3.76v7.36c-.036 1.51-.556 2.769-1.56 3.773s-2.262 1.524-3.773 1.56H5.333c-1.51-.036-2.769-.556-3.773-1.56S.036 18.858 0 17.347v-7.36c.036-1.511.556-2.765 1.56-3.76 1.004-.996 2.262-1.52 3.773-1.574h.774l-1.174-1.12a1.234 1.234 0 0 1-.373-.906c0-.356.124-.658.373-.907l.027-.027c.267-.249.573-.373.92-.373.347 0 .653.124.92.373L9.653 4.44c.071.071.134.142.187.213h4.267a.836.836 0 0 1 .16-.213l2.853-2.747c.267-.249.573-.373.92-.373.347 0 .662.151.929.4.267.249.391.551.391.907 0 .355-.124.657-.373.906zM5.333 7.24c-.746.018-1.373.276-1.88.773-.506.498-.769 1.13-.786 1.894v7.52c.017.764.28 1.395.786 1.893.507.498 1.134.756 1.88.773h13.334c.746-.017 1.373-.275 1.88-.773.506-.498.769-1.129.786-1.893v-7.52c-.017-.765-.28-1.396-.786-1.894-.507-.497-1.134-.755-1.88-.773zM8 11.107c.373 0 .684.124.933.373.25.249.383.569.4.96v1.173c-.017.391-.15.711-.4.96-.249.25-.56.374-.933.374s-.684-.125-.933-.374c-.25-.249-.383-.569-.4-.96V12.44c0-.373.129-.689.386-.947.258-.257.574-.386.947-.386zm8 0c.373 0 .684.124.933.373.25.249.383.569.4.96v1.173c-.017.391-.15.711-.4.96-.249.25-.56.374-.933.374s-.684-.125-.933-.374c-.25-.249-.383-.569-.4-.96V12.44c.017-.391.15-.711.4-.96.249-.249.56-.373.933-.373Z" fill="#ff9e44"/>
      </g>
      <text y="26" text-anchor="middle" fill="#8a7060" font-size="9" font-family="'Segoe UI','PingFang SC',sans-serif" textLength="72" lengthAdjust="spacingAndGlyphs">攢硬幣改昵称</text>
    </g>
    <!-- Steam -->
    <g transform="translate(70, 0)">
      <circle r="16" fill="rgba(255,158,68,0.08)" stroke="#ff9e44" stroke-width="0.8" stroke-opacity="0.3"/>
      <g transform="scale(0.55) translate(-12, -12)" opacity="0.9">
        <path d="M11.979 0C5.678 0 .511 4.86.022 11.037l6.432 2.658c.545-.371 1.203-.59 1.912-.59.063 0 .125.004.188.006l2.861-4.142V8.91c0-2.495 2.028-4.524 4.524-4.524 2.494 0 4.524 2.031 4.524 4.527s-2.03 4.525-4.524 4.525h-.105l-4.076 2.911c0 .052.004.105.004.159 0 1.875-1.515 3.396-3.39 3.396-1.635 0-3.016-1.173-3.331-2.727L.436 15.27C1.862 20.307 6.486 24 11.979 24c6.627 0 11.999-5.373 11.999-12S18.605 0 11.979 0zM7.54 18.21l-1.473-.61c.262.543.714.999 1.314 1.25 1.297.539 2.793-.076 3.332-1.375.263-.63.264-1.319.005-1.949s-.75-1.121-1.377-1.383c-.624-.26-1.29-.249-1.878-.03l1.523.63c.956.4 1.409 1.5 1.009 2.455-.397.957-1.497 1.41-2.454 1.012H7.54zm11.415-9.303c0-1.662-1.353-3.015-3.015-3.015-1.665 0-3.015 1.353-3.015 3.015 0 1.665 1.35 3.015 3.015 3.015 1.663 0 3.015-1.35 3.015-3.015zm-5.273-.005c0-1.252 1.013-2.266 2.265-2.266 1.249 0 2.266 1.014 2.266 2.266 0 1.251-1.017 2.265-2.266 2.265-1.253 0-2.265-1.014-2.265-2.265z" fill="#ff9e44"/>
      </g>
      <text y="26" text-anchor="middle" fill="#8a7060" font-size="9" font-family="'PingFang SC',sans-serif">亦青</text>
    </g>
    <!-- Douyin -->
    <g transform="translate(210, 0)">
      <circle r="16" fill="rgba(255,158,68,0.08)" stroke="#ff9e44" stroke-width="0.8" stroke-opacity="0.3"/>
      <g transform="scale(0.55) translate(-12, -12)" opacity="0.9">
        <path d="M12.525.02c1.31-.02 2.61-.01 3.91-.02.08 1.53.63 3.09 1.75 4.17 1.12 1.11 2.7 1.62 4.24 1.79v4.03c-1.44-.05-2.89-.35-4.2-.97-.57-.26-1.1-.59-1.62-.93-.01 2.92.01 5.84-.02 8.75-.08 1.4-.54 2.79-1.35 3.94-1.31 1.92-3.58 3.17-5.91 3.21-1.43.08-2.86-.31-4.08-1.03-2.02-1.19-3.44-3.37-3.65-5.71-.02-.5-.03-1-.01-1.49.18-1.9 1.12-3.72 2.58-4.96 1.66-1.44 3.98-2.13 6.15-1.72.02 1.48-.04 2.96-.04 4.44-.99-.32-2.15-.23-3.02.37-.63.41-1.11 1.04-1.36 1.75-.21.51-.15 1.07-.14 1.61.24 1.64 1.82 3.02 3.5 2.87 1.12-.01 2.19-.66 2.77-1.61.19-.33.4-.67.41-1.06.1-1.79.06-3.57.07-5.36.01-4.03-.01-8.05.02-12.07z" fill="#ff9e44"/>
      </g>
      <text y="26" text-anchor="middle" fill="#8a7060" font-size="9" font-family="'PingFang SC','Microsoft YaHei',sans-serif" textLength="80" lengthAdjust="spacingAndGlyphs">他宝贝的我让你飞起来</text>
    </g>
  </g>

  <!-- ── Scanline overlay ── -->
  <g opacity="0.03">
    <rect width="840" height="420" rx="20" fill="url(#scanlines)"/>
  </g>

  <!-- ── HUD readout bottom-left ── -->
  <text x="22" y="404" fill="#ff9e44" opacity="0.2" font-size="9" font-family="Consolas,'Courier New',monospace" letter-spacing="1.2">SYS://GHOSTGJJ STATUS:ONLINE</text>
  <text x="680" y="404" text-anchor="end" fill="#ff9e44" opacity="0.2" font-size="9" font-family="Consolas,'Courier New',monospace" letter-spacing="1.2">v2026</text>
</svg>