<svg t="1778260377053" class="icon" viewBox="0 0 1024 1024" version="1.1" xmlns="http://www.w3.org/2000/svg" p-id="1514" width="200" height="200"><path d="M517.632 963.84a454.7584 454.7584 0 1 1 454.7584-454.7584 455.2192 455.2192 0 0 1-454.7584 454.7584z m0-848.0768a393.3184 393.3184 0 1 0 393.3184 393.3184 393.7792 393.7792 0 0 0-393.3184-393.3184z" fill="#ff9e44" p-id="1515"></path><path d="M622.1824 717.8752a66.56 66.56 0 0 1-31.0272-7.7312l-70.912-37.4272a4.8128 4.8128 0 0 0-4.5056 0l-71.0144 37.2224A66.2528 66.2528 0 0 1 348.7232 640l13.7216-79.0016a4.8128 4.8128 0 0 0-1.3824-4.2496l-57.344-56.32a66.2528 66.2528 0 0 1 36.9152-112.9472L419.84 376.1664a4.7104 4.7104 0 0 0 3.6352-2.6112l35.84-71.68a65.8944 65.8944 0 0 1 59.3408-36.8128A65.8944 65.8944 0 0 1 578.0992 302.08l35.3792 71.68a4.7104 4.7104 0 0 0 3.584 2.6112L696.32 388.2496a66.2016 66.2016 0 0 1 36.5056 113.0496l-57.5488 55.8592a5.12 5.12 0 0 0-1.3824 4.2496l13.4144 79.104a66.56 66.56 0 0 1-65.2288 77.3632z m-104.192-107.1616a65.9968 65.9968 0 0 1 30.72 7.68l70.912 37.4272a4.8128 4.8128 0 0 0 7.0144-5.12l-13.4144-79.0528a66.56 66.56 0 0 1 19.1488-58.624l57.7536-55.808a4.8128 4.8128 0 0 0-2.6624-8.192l-79.3088-11.6736a66.2016 66.2016 0 0 1-49.8176-36.352l-35.3792-71.9872a4.5056 4.5056 0 0 0-4.3008-2.7136 4.4544 4.4544 0 0 0-4.3008 2.7136l-35.84 71.68a66.0992 66.0992 0 0 1-49.9712 36.1472l-79.36 11.3664a4.4032 4.4032 0 0 0-3.8912 3.2768 4.4544 4.4544 0 0 0 1.1776 5.12l57.344 56.32a66.2528 66.2528 0 0 1 18.944 58.6752L409.2416 650.24a4.4544 4.4544 0 0 0 1.8944 4.7104 4.352 4.352 0 0 0 5.12 0.3584l71.0656-37.1712a66.56 66.56 0 0 1 30.6688-7.424z" fill="#ff9e44" p-id="1516"></path></svg>