<svg t="1778260408782" class="icon" viewBox="0 0 1024 1024" version="1.1" xmlns="http://www.w3.org/2000/svg" p-id="1686" width="200" height="200"><path d="M739.9424 79.7696H281.2928A195.8912 195.8912 0 0 0 85.6064 275.456v458.6496a195.8912 195.8912 0 0 0 195.6864 195.6352h458.6496a195.8912 195.8912 0 0 0 195.6864-195.6352V275.456a195.8912 195.8912 0 0 0-195.6864-195.6864z m134.2464 654.336a134.3488 134.3488 0 0 1-134.2464 134.1952H281.2928a134.3488 134.3488 0 0 1-134.2464-134.1952V275.456a134.4 134.4 0 0 1 134.2464-134.2464h458.6496a134.4 134.4 0 0 1 134.2464 134.2464z" fill="#ff9e44" p-id="1687"></path><path d="M671.1296 256.4608a111.2064 111.2064 0 0 0-106.7008 80.3328h-296.96a30.72 30.72 0 0 0 0 61.44h296.96a111.0528 111.0528 0 1 0 106.7008-141.7728z m0 160.7168a49.664 49.664 0 1 1 49.664-49.664 49.664 49.664 0 0 1-49.664 49.664zM751.5136 602.5728H460.4416a111.104 111.104 0 1 0 0 61.44h291.072a30.72 30.72 0 1 0 0-61.44z m-397.824 80.384a49.664 49.664 0 1 1 49.664-49.664 49.7152 49.7152 0 0 1-49.664 49.664z" fill="#ff9e44" p-id="1688"></path></svg>