<svg viewBox="0 0 1024 1024" xmlns="http://www.w3.org/2000/svg" width="200" height="200"><path d="M768 256H256A192 192 0 0 0 64 448v128a192 192 0 0 0 192 192h512a192 192 0 0 0 192-192V448A192 192 0 0 0 768 256zm128 320a128 128 0 0 1-128 128H256a128 128 0 0 1-128-128V448a128 128 0 0 1 128-128h512a128 128 0 0 1 128 128v128z" fill="#ff9e44"/><path d="M384 480h-64a32 32 0 0 0 0 64h64v64a32 32 0 0 0 64 0v-64h64a32 32 0 0 0 0-64h-64v-64a32 32 0 0 0-64 0v64zM704 448a48 48 0 1 0 0 96 48 48 0 0 0 0-96zm96 128a48 48 0 1 0 0-96 48 48 0 0 0 0 96z" fill="#ff9e44"/></svg>