<svg t="1778260352817" class="icon" viewBox="0 0 1024 1024" version="1.1" xmlns="http://www.w3.org/2000/svg" p-id="1342" width="200" height="200"><path d="M865.28 233.216l-267.9296-158.72a155.3408 155.3408 0 0 0-154.9312-1.6896l-271.36 152.7296A155.4944 155.4944 0 0 0 92.16 359.1168l-3.328 311.296a155.1872 155.1872 0 0 0 76.032 135.0144l267.8784 158.72a155.392 155.392 0 0 0 154.9824 1.6896l271.36-152.7808a155.2896 155.2896 0 0 0 78.8992-133.12l3.3792-311.296A155.4432 155.4432 0 0 0 865.28 233.216z m11.264 445.696a93.7984 93.7984 0 0 1-47.6672 80.4864l-271.36 152.7296A93.6448 93.6448 0 0 1 463.872 911.36l-267.9296-158.72a93.8496 93.8496 0 0 1-46.08-81.5104L153.6 359.7824a93.7984 93.7984 0 0 1 47.6672-80.4864l271.36-152.7296a93.7472 93.7472 0 0 1 93.4912 1.024l267.9296 158.72a93.7472 93.7472 0 0 1 46.08 81.5104z" fill="#ff9e44" p-id="1343"></path><path d="M613.0688 528.2304a139.5712 139.5712 0 1 0-191.2832 0 208.384 208.384 0 0 0-112.64 184.8832 30.72 30.72 0 0 0 61.44 0 146.7904 146.7904 0 1 1 293.5808 0 30.72 30.72 0 0 0 61.44 0 208.384 208.384 0 0 0-112.5376-184.8832zM439.296 426.752a78.1312 78.1312 0 1 1 78.1312 78.1312A78.2336 78.2336 0 0 1 439.296 426.752z" fill="#ff9e44" p-id="1344"></path></svg>